<?xml version="1.0" encoding="utf-8"?>
<!-- Generator: Adobe Illustrator 24.0.0, SVG Export Plug-In . SVG Version: 6.00 Build 0)  -->
<svg version="1.1" id="Layer_1" xmlns="http://www.w3.org/2000/svg" xmlns:xlink="http://www.w3.org/1999/xlink" x="0px" y="0px"
	 viewBox="0 0 232 244" style="enable-background:new 0 0 232 244;" xml:space="preserve">
<style type="text/css">
	.st0{fill:#FFBC00;}
	.st1{fill:#36984D;}
</style>
<g>
	<path class="st0" d="M79.36,121.88l9.41,1.36c-5.99-3.71-10.37-8.97-13.4-13.71c-6.2-9.72-9.45-21.64-9.45-28.4
		c0-12.43,3.48-23.28,10.65-33.17c6.31-8.71,14.59-15.5,21.91-21.5c7.36-6.03,14.01-11.49,17.37-17.75
		c3.35,6.26,10.01,11.72,17.37,17.75c7.31,6,15.6,12.79,21.91,21.5c7.17,9.89,10.65,20.75,10.65,33.17c0,6.76-3.24,18.68-9.45,28.4
		c-3.04,4.77-7.45,10.05-13.48,13.77l9.45-1.37c3.3-3.15,5.94-6.61,8.02-9.86c7-10.97,10.19-23.73,10.19-30.94
		c0-30.21-19.01-45.8-34.29-58.32c-9.08-7.44-16.43-13.47-17.72-20.57c-0.23-1.29-1.33-2.23-2.64-2.23c-1.31,0-2.41,0.95-2.64,2.23
		c-1.29,7.1-8.64,13.12-17.72,20.57C80.22,35.33,61.21,50.92,61.21,81.13c0,7.21,3.19,19.97,10.19,30.94
		C73.46,115.3,76.09,118.74,79.36,121.88z"/>
	<path class="st0" d="M26.57,243.78c-9.22,0-14.72-3.76-14.72-10.04c0-6.21,6.96-9.56,13.51-9.56c6.79,0,10.2,2.11,11.08,2.75
		l1.08,0.79v-3h2.41v6.18h-2.42c-1.64-3.03-7.02-4.62-11.69-4.62c-5.15,0-10.7,2.34-10.7,7.48c0,6.48,6.3,7.84,11.58,7.84
		c8.99,0,11.05-3.17,11.35-5.47h2.28C40.06,239.27,37.73,243.78,26.57,243.78z M73.79,233.98c0-6.14-5.66-9.8-15.15-9.8
		c-9.47,0-15.12,3.66-15.12,9.8s5.65,9.8,15.12,9.8C68.12,243.78,73.79,240.12,73.79,233.98z M70.31,233.86
		c0,6.84-6.66,7.63-11.67,7.63c-5.43,0-11.67-0.87-11.67-7.63c0-4.92,4.14-7.63,11.67-7.63C66.17,226.23,70.31,228.94,70.31,233.86z
		 M93.83,242.84v-2.44h-7.56v-5.88h11.19v3.1h2.35v-8h-2.35v2.64H86.26v-5.18h20.43v4.28h2.23v-6.6H76.56v2.32h6.8v13.32h-6.8v2.44
		H93.83z M130.51,242.84v-2.44h-7.56v-5.88h11.19v3.1h2.35v-8h-2.35v2.64h-11.19v-5.18h20.43v4.28h2.23v-6.6h-32.36v2.32h6.8v13.32
		h-6.8v2.44H130.51z M182.8,242.84v-7.58h-2.5v5.13h-20.49v-5.79h11.25v2.95h2.02v-8.03h-2.02v2.95h-11.25v-5.48h20.49v4.28h2.5
		v-6.54h-32.88v2.26h6.86v13.41h-6.86v2.44H182.8z M220,242.84v-7.58h-2.5v5.13h-20.49v-5.79h11.25v2.95h2.02v-8.03h-2.02v2.95
		h-11.25v-5.48h20.49v4.28h2.5v-6.54h-32.88v2.26h6.86v13.41h-6.86v2.44H220z"/>
	<g>
		<path class="st0" d="M173.27,180.06c0,2.06,1.58,3.58,4.19,3.58c3.52,0,5.28-2.19,5.28-7.23c-1.15-0.3-2.79-0.49-4.31-0.49
			C175.27,175.94,173.27,177.45,173.27,180.06z"/>
		<path class="st0" d="M83.8,180.06c0,2.06,1.58,3.58,4.19,3.58c3.52,0,5.28-2.19,5.28-7.23c-1.15-0.3-2.79-0.49-4.31-0.49
			C85.8,175.94,83.8,177.45,83.8,180.06z"/>
		<path class="st0" d="M116,132.62l-116.27-16.8V216L116,203.74L232.27,216V115.82L116,132.62z M67.7,188.98
			c0,0.57-0.46,1.04-1.04,1.04h-8.25c-0.57,0-1.04-0.46-1.04-1.04v-20.21c0-4.68-1.52-6.31-4.8-6.31c-3.04,0-5.34,1.82-5.34,6.31
			v14.31c0,0.57-0.46,1.04-1.04,1.04h-8.25c-0.57,0-1.04-0.46-1.04-1.04v-14.31c0-4.68-1.46-6.31-4.8-6.31
			c-2.98,0-5.28,1.82-5.28,6.31v20.24c0,0.56-0.45,1.03-1.01,1.04c-2.52,0.06-8.85,0.18-8.85-0.02c0-21.7-1.32-30.44-1.95-33.36
			c-0.14-0.65,0.36-1.25,1.02-1.25h9.1c0.57,0,1.04,0.46,1.04,1.04v3.64h0.12c2-3.58,5.59-5.28,9.96-5.28
			c3.72,0,6.93,1.46,8.58,4.55c0.37,0.7,1.34,0.76,1.78,0.11c2.16-3.17,5.7-4.66,10.04-4.66c6.25,0,11.05,3.7,11.05,11.78V188.98z
			 M106.87,188.46c0,0.36-0.23,0.68-0.57,0.79c-1.68,0.57-3.09,0.77-4.95,0.77c-3.95,0-5.77-1.34-6.62-3.95
			c-2.06,3.1-5.28,4.55-9.72,4.55c-7.17,0-11.54-3.83-11.54-10.32c0-7.17,5.77-10.99,14.94-10.99c1.34,0,3.16,0.12,4.86,0.42v-2.06
			c0-4.19-1.58-6.13-4.37-6.13c-2.65,0-4.2,1.52-4.95,4.86c-0.1,0.44-0.52,0.72-0.97,0.64l-7.1-1.32c-0.49-0.09-0.79-0.59-0.65-1.06
			c1.91-6.41,6.96-9.85,14.39-9.85c8.68,0,14.03,4.55,14.03,12.39v11.42c0,2.19,0.79,3.22,2.37,3.22h0.02
			c0.46,0,0.83,0.37,0.83,0.83V188.46z M122.42,189.12c0,0.5-0.4,0.92-0.9,0.94c-2.27,0.09-8.06,0.29-8.06-0.04
			c0-19.51-1.52-30.25-2.07-33.52c-0.1-0.57,0.34-1.09,0.92-1.09h9.17c0.52,0,0.94,0.42,0.94,0.94V189.12z M116.8,151.71
			c-3.28,0-5.83-2.13-5.83-6.01c0-3.76,2.55-5.83,5.83-5.83c3.28,0,6.01,2.06,6.01,5.83C122.81,149.4,120.08,151.71,116.8,151.71z
			 M161.11,190.02h-10.46c-0.64,0-1.23-0.34-1.55-0.88l-7.37-12.35l-2.55,2.67v10.1c0,0.26-0.2,0.47-0.46,0.48
			c-1.89,0.08-8.96,0.34-8.96-0.02c0-31.21-1.43-45.25-1.75-48.04c-0.03-0.29,0.19-0.53,0.48-0.53h10.2c0.27,0,0.48,0.22,0.48,0.48
			c-0.05,3.7-0.4,27.39-0.9,29.63h0.3c5.88-6.93,8.67-12.72,9.65-15.05c0.28-0.67,0.94-1.1,1.67-1.1h11c0.42,0,0.64,0.51,0.35,0.81
			l-12.45,13.12c-0.15,0.16-0.18,0.41-0.05,0.6l12.78,19.34C161.73,189.6,161.5,190.02,161.11,190.02z M196.34,188.46
			c0,0.36-0.23,0.68-0.57,0.79c-1.68,0.57-3.09,0.77-4.95,0.77c-3.95,0-5.77-1.34-6.62-3.95c-2.06,3.1-5.28,4.55-9.72,4.55
			c-7.17,0-11.54-3.83-11.54-10.32c0-7.17,5.77-10.99,14.94-10.99c1.34,0,3.16,0.12,4.86,0.42v-2.06c0-4.19-1.58-6.13-4.37-6.13
			c-2.65,0-4.2,1.52-4.95,4.86c-0.1,0.44-0.52,0.72-0.97,0.64l-7.1-1.32c-0.49-0.09-0.79-0.59-0.65-1.06
			c1.91-6.41,6.96-9.85,14.39-9.85c8.68,0,14.03,4.55,14.03,12.39v11.42c0,2.19,0.79,3.22,2.37,3.22h0.02
			c0.46,0,0.83,0.37,0.83,0.83V188.46z M192.58,155.24c0-5.45-5.45-5.45-5.45-9.99c0-3.01,2.44-5.45,5.45-5.45s5.45,2.44,5.45,5.45
			C198.03,149.34,194.85,155.24,192.58,155.24z M212.56,188.96c0,0.5-0.4,0.92-0.9,0.94c-2.27,0.09-8.06,0.29-8.06-0.04
			c0-19.51-1.52-30.25-2.07-33.52c-0.1-0.57,0.34-1.09,0.92-1.09h9.17c0.52,0,0.94,0.42,0.94,0.94V188.96z M206.94,151.54
			c-3.28,0-5.83-2.13-5.83-6.01c0-3.76,2.55-5.83,5.83-5.83c3.28,0,6.01,2.06,6.01,5.83C212.96,149.23,210.22,151.54,206.94,151.54z
			"/>
	</g>
	<path class="st1" d="M152.73,85.01c-0.07,0.08-0.14,0.14-0.22,0.17c-0.02,0.2-0.03,0.4-0.06,0.6c-0.04-0.07-0.07-0.15-0.12-0.22
		c-0.2,0.19-0.37,0.32-0.52,0.48c-1.33,1.35-2.82,2.5-4.32,3.64c-0.37,0.28-0.74,0.55-1.11,0.83c-0.16,0.14-0.31,0.28-0.47,0.42
		c-0.09,0.08-0.19,0.12-0.29,0.14c-0.48,0.35-0.96,0.69-1.44,1.04c-0.91,0.65-1.73,1.44-2.79,1.86c-1.04,0.41-2.1,0.75-3.16,1.12
		c-1.83,0-3.63,0.41-5.45,0.51c-0.39,0.02-0.77-0.02-1-0.39c0.07-0.5,0.45-0.69,0.81-0.88c0.99-0.53,2.06-0.89,3.14-1.15
		c2.45-0.59,4.81-1.42,7.12-2.41c1.09-0.47,2.16-0.97,3.2-1.53c1.21-1.1,2.39-2.24,3.53-3.41c1.36-1.4,2.74-2.8,3.68-4.52
		c0.78-1.43,1.33-2.94,1.79-4.5c-0.01-0.16-0.02-0.32-0.04-0.48c-0.46-4.57-1.47-8.93-3-13.07c-0.59,1.38-1.31,2.72-2.26,3.82
		c-0.11,0.13-0.23,0.2-0.36,0.24c-0.61,0.89-1.22,1.77-1.87,2.63c-0.84,1.11-1.82,2.12-2.69,3.2c-0.78,0.97-1.68,1.79-2.68,2.51
		c-1.11,0.8-2.25,1.56-3.3,2.43c-1.84,1.51-3.59,3.13-5.6,4.4c-0.99,0.62-2.07,1.11-3.14,1.58c-0.68,0.3-0.89,0.17-1.31-0.54
		c0.21-0.7,0.72-1.15,1.33-1.47c1.7-0.87,3.04-2.22,4.5-3.4c1.41-1.13,2.71-2.38,4.12-3.51c1.88-1.5,3.83-2.9,5.72-4.39
		c1.27-1,2.49-2.07,3.33-3.47c0.29-0.49,0.57-0.99,0.84-1.5c0.81-1.77,1.65-3.51,2.25-5.32c-2.15-4.86-5.07-9.39-8.76-13.56
		c-0.04,0.11-0.07,0.22-0.11,0.33c-0.13,0.35-0.26,0.69-0.39,1.04c0.24,0.35,0.27,0.82-0.13,1.19c-0.25,0.23-0.45,0.5-0.62,0.78
		c-0.15,0.4-0.29,0.8-0.41,1.2c-0.06,0.18-0.15,0.31-0.26,0.42c-0.21,0.65-0.41,1.31-0.72,1.9c-0.46,0.84-1.03,1.61-1.62,2.36
		c-0.4,0.74-0.81,1.48-1.22,2.22c-0.71,1.26-1.47,2.49-2.45,3.58c-0.82,0.91-1.52,1.93-2.02,3.07c-0.18,0.42-0.5,0.78-0.78,1.15
		c-0.37,0.48-0.75,0.94-1.14,1.39c-0.92,1.09-1.95,2.07-3.12,2.89c-0.16,0.11-0.32,0.21-0.5,0.28c-0.39,0.15-0.67-0.07-0.6-0.48
		c0.05-0.29,0.16-0.58,0.31-0.83c0.72-1.19,1.45-2.38,2.19-3.56c0.12-0.19,0.24-0.39,0.37-0.58c1.46-2.97,3.82-5.34,5.68-8.07
		c1.05-1.55,2.4-2.9,3.27-4.58c0.36-0.7,0.52-1.47,0.78-2.22c0.13-0.36,0.29-0.7,0.47-1.02c0.51-1.38,1.07-2.74,1.48-4.15
		c-6.65-6.94-13.8-11.03-17.66-13.24c-0.84-0.48-1.5-0.86-1.94-1.14c-3.37-2.18-3.67-5.76-3.69-6.8c-0.01-0.89-0.74-1.61-1.63-1.61
		c-0.89,0-1.62,0.72-1.63,1.61c-0.01,1.04-0.32,4.62-3.69,6.8c-2.64,1.71-5.26,3.33-7.82,5c-0.07,0.82,0.02,1.66,0.23,2.63
		c0.01-0.01,0.03-0.02,0.04-0.03c0,0.08,0,0.16,0,0.23c0.12,0.63,0.15,1.25,0.02,1.8c0.05,0.97,0.16,1.93,0.34,2.88
		c0.27,1.47,0.53,2.95,1.13,4.34c0.59,1.37,1.34,2.61,2.53,3.56c0.93,0.74,1.64,1.69,2.14,2.77c0.56,1.21,1.14,2.42,1.65,3.66
		c0.43,1.06,0.85,2.13,0.97,3.28c0.04,0.4-0.14,0.6-0.43,0.8c-0.27,0.18-0.54,0.16-0.75-0.04c-0.33-0.32-0.69-0.64-0.92-1.02
		c-0.55-0.91-1.14-1.78-1.9-2.55c-0.78-0.8-1.5-1.66-2.05-2.66c-0.76-1.39-1.52-2.78-2.33-4.14c-0.53-0.89-1.12-1.75-1.77-2.56
		c-0.74-0.92-1.44-1.85-1.83-2.99c-0.13-0.38-0.37-0.73-0.56-1.09c-0.33-0.66-0.71-1.29-0.97-1.98c-0.08-0.21-0.15-0.43-0.21-0.64
		c0.06-0.05,0.11-0.09,0.17-0.13c-0.45-0.7-0.91-1.38-1.46-1.95c-2.09,1.62-4.11,3.38-6.01,5.38c-1.54,1.63-2.96,3.32-4.26,5.06
		c0.11,1.24,0.24,2.47,0.54,3.65c0.03-0.05,0.06-0.1,0.09-0.14c0.12,0.76,0.42,1.47,0.88,2.15c0.52,0.76,1.14,1.47,1.78,2.14
		c1.44,1.5,2.92,2.96,4.37,4.45c0.32,0.33,0.64,0.68,0.9,1.06c0.99,1.46,2.23,2.71,3.59,3.8c2.27,1.83,4.27,3.93,6.17,6.12
		c0.94,1.08,1.92,2.08,3.08,2.93c0.37,0.27,0.7,0.61,1.02,0.95c0.23,0.25,0.25,0.67,0.1,0.92c-0.16,0.27-0.49,0.42-0.86,0.3
		c-0.33-0.11-0.65-0.29-0.94-0.48c-1.22-0.78-2.42-1.59-3.66-2.34c-0.63-0.38-1.29-0.73-1.79-1.28c-1.29-1.39-2.85-2.46-4.3-3.67
		c-1.01-0.84-2.07-1.63-3-2.54c-1.55-1.51-3.01-3.1-4.51-4.65c-0.08-0.08-0.14-0.17-0.21-0.25c-0.78-1.12-1.61-2.21-2.33-3.37
		c-0.7-1.13-1.37-2.28-2.03-3.44c0.08-0.14,0.16-0.27,0.25-0.41c-0.46-1.09-0.71-2.25-0.87-3.43c-3.69,5.59-6.19,11.72-7.48,18.33
		c0.39,1.27,0.9,2.5,1.52,3.67c0.42,0.8,0.9,1.58,1.44,2.32c-0.01-0.05-0.01-0.11-0.02-0.16c0.96,0.81,1.89,1.61,2.84,2.38
		c1.13,0.92,2.37,1.64,3.74,2.15c1.22,0.46,2.41,1.02,3.63,1.49c2.37,0.9,4.75,1.76,7.13,2.64c0.26,0.09,0.51,0.2,0.76,0.31
		c1.99,0.91,4.09,1.52,6.13,2.28c0.48,0.18,0.95,0.4,1.42,0.64c0.41,0.21,0.54,0.46,0.44,0.77c-0.11,0.35-0.42,0.45-0.72,0.39
		c-0.96-0.19-1.94-0.1-2.89-0.44c-1.66-0.61-3.36-1.11-5.04-1.68c-1.21-0.41-2.41-0.87-3.62-1.29c-1-0.35-2.03-0.63-3.02-1
		c-0.61-0.22-1.19-0.54-1.79-0.81c-1.44-0.65-2.9-1.26-4.32-1.96c-1.32-0.65-2.52-1.51-3.47-2.63c-0.58-0.51-1.11-1.08-1.59-1.68
		c-1.24-1.53-2.22-3.25-2.97-5.07c-0.13,0.9-0.25,1.8-0.35,2.71c-0.82,8.24,0.55,15.06,2.77,20.52c0.52,0.03,1.05,0.08,1.56,0.15
		c0.6,0.09,1.22,0.22,1.8,0.43c1.34,0.23,2.68,0.36,4.03,0.49c1.57,0.16,3.15,0.26,4.73,0.41c1.41,0.13,2.82,0.28,4.23,0.44
		c0.76,0.09,1.51,0.22,2.26,0.35c0.12,0.02,0.22,0.13,0.41,0.26c-0.2,0.15-0.32,0.29-0.48,0.34c-0.18,0.05-0.38,0.01-0.57,0.02
		c-3.5,0.1-7-0.12-10.5,0.15c-0.83,0.06-1.6,0.27-2.36,0.62c-0.13,0.06-0.25,0.13-0.37,0.21c-0.12-0.19-0.23-0.39-0.34-0.59
		c-0.84,0.27-1.72,0.42-2.6,0.57c1.2,2.23,2.51,4.18,3.81,5.82c2.78,4.72,7.9,9.25,12.97,11.33c5.46,2.25,14.58,2.06,18.19-3.49
		c0.03-0.04,0.11-0.05,0.17-0.07c-0.02,0.37-0.06,0.69-0.05,1.01c0.02,0.54,0.09,1.09,0.09,1.63c0,0.57-0.09,1.14-0.08,1.71
		c0.02,1.64,2.25,3.63,2.24,2.89c-0.01-1.61-0.1-3.22-0.12-4.83c-0.04-4.84,0.02-9.67,0.11-14.51c0.88,1.32,0.77,3.04,0.95,4.61
		c0.56,4.95,4.72,9.27,9.65,10.02c4.26,0.65,8.6-1.18,11.91-3.94c3.6-3,6.92-7.34,9.23-11.4c3.48-6.13,5.16-13.03,5.24-20.01
		C154.51,82.7,153.67,83.88,152.73,85.01z M114.27,91.7c-0.21,0.39-0.58,0.59-0.96,0.4c-1.16-0.58-2.23-1.28-2.71-2.58
		c-0.02-0.04,0.01-0.1,0.02-0.2c0.54-0.2,1.12-0.17,1.66-0.04c0.52,0.13,1.02,0.37,1.5,0.63C114.44,90.27,114.58,91.13,114.27,91.7z
		 M116.12,78.06c-0.67,0.39-1.23,0.16-1.8-0.18c-0.78-0.47-1.4-1.08-1.74-1.95c-0.28-0.7-0.22-1.33,0.32-1.92
		c0.51-0.56,1.13-0.58,1.77-0.43c1.01,0.22,2.22,1.81,2.21,2.96C116.91,77.1,116.79,77.67,116.12,78.06z M125.57,88.02
		c-1.1,0.64-2.3,0.76-3.53,0.49c-0.87-0.19-1.04-0.55-0.79-1.4c0.27-0.91,0.62-1.74,1.36-2.4c0.5-0.45,1.06-0.77,1.69-0.89
		c1.32-0.26,2.01,0.09,2.42,1.61c0.05,0.17,0.03,0.36,0.03,0.51C126.74,86.88,126.33,87.58,125.57,88.02z"/>
</g>
</svg>
