<?xml version="1.0" encoding="utf-8"?>
<!-- Generator: Adobe Illustrator 24.0.0, SVG Export Plug-In . SVG Version: 6.00 Build 0)  -->
<svg version="1.1" id="Layer_1" xmlns="http://www.w3.org/2000/svg" xmlns:xlink="http://www.w3.org/1999/xlink" x="0px" y="0px"
	 viewBox="0 0 538.4 113.19" style="enable-background:new 0 0 538.4 113.19;" xml:space="preserve">
<style type="text/css">
	.st0{fill:#FFBC00;}
</style>
<g>
	<path class="st0" d="M278.96,77.06c-12.37,0-19.74-5.04-19.74-13.47c0-8.33,9.34-12.82,18.12-12.82c9.11,0,13.68,2.83,14.86,3.69
		l1.45,1.06V51.5h3.23v8.29h-3.25c-2.2-4.06-9.42-6.2-15.68-6.2c-6.91,0-14.35,3.14-14.35,10.03c0,8.69,8.45,10.52,15.53,10.52
		c12.06,0,14.82-4.25,15.22-7.34h3.06C297.05,71.01,293.93,77.06,278.96,77.06z M342.29,63.92c0-8.24-7.59-13.14-20.32-13.14
		c-12.7,0-20.28,4.91-20.28,13.14s7.58,13.14,20.28,13.14C334.69,77.06,342.29,72.15,342.29,63.92z M337.62,63.76
		c0,9.17-8.93,10.23-15.65,10.23c-7.28,0-15.65-1.17-15.65-10.23c0-6.6,5.55-10.23,15.65-10.23
		C332.07,53.52,337.62,57.16,337.62,63.76z M369.17,75.8v-3.27h-10.14v-7.89h15.01v4.16h3.15V58.07h-3.15v3.54h-15.02v-6.95h27.4
		v5.74h2.99v-8.85h-43.4v3.11h9.12v17.87h-9.12v3.27H369.17z M418.37,75.8v-3.27h-10.14v-7.89h15.01v4.16h3.15V58.07h-3.15v3.54
		h-15.01v-6.95h27.4v5.74h2.99v-8.85h-43.4v3.11h9.12v17.87h-9.12v3.27H418.37z M488.51,75.8V65.64h-3.35v6.88h-27.48v-7.77h15.09
		v3.96h2.71V57.94h-2.71v3.96h-15.09v-7.35h27.48v5.74h3.35v-8.77h-44.1v3.03h9.2v17.99h-9.2v3.27L488.51,75.8L488.51,75.8z
		 M538.4,75.8V65.64h-3.35v6.88h-27.48v-7.77h15.09v3.96h2.71V57.94h-2.71v3.96h-15.09v-7.35h27.48v5.74h3.35v-8.77h-44.1v3.03h9.2
		v17.99h-9.2v3.27L538.4,75.8L538.4,75.8z"/>
	<g>
		<path class="st0" d="M175.27,73.28c0,2.06,1.58,3.58,4.19,3.58c3.52,0,5.28-2.19,5.28-7.23c-1.15-0.3-2.79-0.49-4.31-0.49
			C177.27,69.16,175.27,70.67,175.27,73.28z"/>
		<path class="st0" d="M85.8,73.28c0,2.06,1.58,3.58,4.19,3.58c3.52,0,5.28-2.19,5.28-7.23c-1.15-0.3-2.79-0.49-4.31-0.49
			C87.8,69.16,85.8,70.67,85.8,73.28z"/>
		<path class="st0" d="M118,25.84L1.73,9.04v100.18L118,96.96l116.27,12.26V9.04L118,25.84z M69.7,82.2c0,0.57-0.46,1.04-1.04,1.04
			h-8.25c-0.57,0-1.04-0.46-1.04-1.04V61.99c0-4.68-1.52-6.31-4.8-6.31c-3.04,0-5.34,1.82-5.34,6.31V76.3
			c0,0.57-0.46,1.04-1.04,1.04h-8.25c-0.57,0-1.04-0.46-1.04-1.04V61.99c0-4.68-1.46-6.31-4.8-6.31c-2.98,0-5.28,1.82-5.28,6.31
			v20.24c0,0.56-0.45,1.03-1.01,1.04c-2.52,0.06-8.85,0.18-8.85-0.02c0-21.7-1.32-30.44-1.95-33.36c-0.14-0.65,0.36-1.25,1.02-1.25
			h9.1c0.57,0,1.04,0.46,1.04,1.04v3.64h0.12c2-3.58,5.59-5.28,9.96-5.28c3.72,0,6.93,1.46,8.58,4.55c0.37,0.7,1.34,0.76,1.78,0.11
			c2.16-3.17,5.7-4.66,10.04-4.66c6.25,0,11.05,3.7,11.05,11.78V82.2z M108.87,81.68c0,0.36-0.23,0.68-0.57,0.79
			c-1.68,0.57-3.09,0.77-4.95,0.77c-3.95,0-5.77-1.34-6.62-3.95c-2.06,3.1-5.28,4.55-9.72,4.55c-7.17,0-11.54-3.83-11.54-10.32
			c0-7.17,5.77-10.99,14.94-10.99c1.34,0,3.16,0.12,4.86,0.42v-2.06c0-4.19-1.58-6.13-4.37-6.13c-2.65,0-4.2,1.52-4.95,4.86
			c-0.1,0.44-0.52,0.72-0.97,0.64l-7.1-1.32c-0.49-0.09-0.79-0.59-0.65-1.06c1.91-6.41,6.96-9.85,14.39-9.85
			c8.68,0,14.03,4.55,14.03,12.39v11.42c0,2.19,0.79,3.22,2.37,3.22h0.02c0.46,0,0.83,0.37,0.83,0.83V81.68z M124.42,82.34
			c0,0.5-0.4,0.92-0.9,0.94c-2.27,0.09-8.06,0.29-8.06-0.04c0-19.51-1.52-30.25-2.07-33.52c-0.1-0.57,0.34-1.09,0.92-1.09h9.17
			c0.52,0,0.94,0.42,0.94,0.94V82.34z M118.8,44.93c-3.28,0-5.83-2.13-5.83-6.01c0-3.76,2.55-5.83,5.83-5.83s6.01,2.06,6.01,5.83
			C124.81,42.62,122.08,44.93,118.8,44.93z M163.11,83.24h-10.46c-0.64,0-1.23-0.34-1.55-0.88l-7.37-12.35l-2.55,2.67v10.1
			c0,0.26-0.2,0.47-0.46,0.48c-1.89,0.08-8.96,0.34-8.96-0.02c0-31.21-1.43-45.25-1.75-48.04c-0.03-0.29,0.19-0.53,0.48-0.53h10.2
			c0.27,0,0.48,0.22,0.48,0.48c-0.05,3.7-0.4,27.39-0.9,29.63h0.3c5.88-6.93,8.67-12.72,9.65-15.05c0.28-0.67,0.94-1.1,1.67-1.1h11
			c0.42,0,0.64,0.51,0.35,0.81l-12.45,13.12c-0.15,0.16-0.18,0.41-0.05,0.6l12.78,19.34C163.73,82.82,163.5,83.24,163.11,83.24z
			 M198.34,81.68c0,0.36-0.23,0.68-0.57,0.79c-1.68,0.57-3.09,0.77-4.95,0.77c-3.95,0-5.77-1.34-6.62-3.95
			c-2.06,3.1-5.28,4.55-9.72,4.55c-7.17,0-11.54-3.83-11.54-10.32c0-7.17,5.77-10.99,14.94-10.99c1.34,0,3.16,0.12,4.86,0.42v-2.06
			c0-4.19-1.58-6.13-4.37-6.13c-2.65,0-4.2,1.52-4.95,4.86c-0.1,0.44-0.52,0.72-0.97,0.64l-7.1-1.32c-0.49-0.09-0.79-0.59-0.65-1.06
			c1.91-6.41,6.96-9.85,14.39-9.85c8.68,0,14.03,4.55,14.03,12.39v11.42c0,2.19,0.79,3.22,2.37,3.22h0.02
			c0.46,0,0.83,0.37,0.83,0.83L198.34,81.68L198.34,81.68z M194.58,48.46c0-5.45-5.45-5.45-5.45-9.99c0-3.01,2.44-5.45,5.45-5.45
			s5.45,2.44,5.45,5.45C200.03,42.56,196.85,48.46,194.58,48.46z M214.56,82.18c0,0.5-0.4,0.92-0.9,0.94
			c-2.27,0.09-8.06,0.29-8.06-0.04c0-19.51-1.52-30.25-2.07-33.52c-0.1-0.57,0.34-1.09,0.92-1.09h9.17c0.52,0,0.94,0.42,0.94,0.94
			V82.18z M208.94,44.76c-3.28,0-5.83-2.13-5.83-6.01c0-3.76,2.55-5.83,5.83-5.83s6.01,2.06,6.01,5.83
			C214.96,42.45,212.22,44.76,208.94,44.76z"/>
	</g>
</g>
</svg>
